<svg width="36" height="36" viewBox="0 0 36 36" fill="none" xmlns="http://www.w3.org/2000/svg">
<path d="M2.64908 12.3978C3.78198 7.58193 7.3996 3.85838 11.9883 2.7851L12.7527 2.60631C16.209 1.7979 19.791 1.7979 23.2473 2.60631L24.0117 2.7851C28.6004 3.85838 32.218 7.58193 33.3509 12.3978C34.2164 16.0767 34.2164 19.9233 33.3509 23.6022C32.218 28.4181 28.6004 32.1416 24.0117 33.2149L23.2473 33.3937C19.791 34.2021 16.209 34.2021 12.7527 33.3937L11.9883 33.2149C7.3996 32.1416 3.78198 28.4181 2.64908 23.6022C1.78364 19.9233 1.78364 16.0767 2.64908 12.3978Z" fill="#EFEFFB" stroke="#6464DE" stroke-width="3"/>
<path d="M14.25 14.3917V13.5833C14.25 11.7083 15.7583 9.86667 17.6333 9.69167C19.8667 9.47501 21.75 11.2333 21.75 13.425V14.575" stroke="#6464DE" stroke-width="2" stroke-miterlimit="10" stroke-linecap="round" stroke-linejoin="round"/>
<path d="M15.5 26.3333H20.5C23.85 26.3333 24.45 24.9916 24.625 23.3583L25.25 18.3583C25.475 16.325 24.8916 14.6666 21.3333 14.6666H14.6666C11.1083 14.6666 10.525 16.325 10.75 18.3583L11.375 23.3583C11.55 24.9916 12.15 26.3333 15.5 26.3333Z" stroke="#6464DE" stroke-width="2" stroke-miterlimit="10" stroke-linecap="round" stroke-linejoin="round"/>
<path d="M20.9129 18H20.9204" stroke="#6464DE" stroke-width="2" stroke-linecap="round" stroke-linejoin="round"/>
<path d="M15.0788 18H15.0863" stroke="#6464DE" stroke-width="2" stroke-linecap="round" stroke-linejoin="round"/>
</svg>
