<svg width="32" height="32" viewBox="0 0 32 32" fill="none" xmlns="http://www.w3.org/2000/svg">
<path d="M2.56795 11.0981C3.55923 6.88419 6.72465 3.62608 10.7398 2.68696L11.4086 2.53052C14.4329 1.82316 17.5671 1.82316 20.5914 2.53052L21.2602 2.68696C25.2754 3.62608 28.4408 6.88419 29.4321 11.0981C30.1893 14.3171 30.1893 17.6829 29.4321 20.9019C28.4408 25.1158 25.2753 28.3739 21.2602 29.313L20.5914 29.4695C17.5671 30.1768 14.4329 30.1768 11.4086 29.4695L10.7398 29.313C6.72465 28.3739 3.55923 25.1158 2.56795 20.902C1.81068 17.6829 1.81068 14.3171 2.56795 11.0981Z" fill="#FFF9E9" stroke="#F0B213" stroke-width="3"/>
<path fill-rule="evenodd" clip-rule="evenodd" d="M16.0004 8C16.6377 8 17.1543 8.46718 17.1543 9.04348V9.89717H17.2821C19.4279 9.89717 21 11.5842 21 13.4703C21 14.0466 20.4834 14.5138 19.8462 14.5138C19.2089 14.5138 18.6923 14.0466 18.6923 13.4703C18.6923 12.5622 17.9685 11.9841 17.2821 11.9841H17.1543V15.2692L18.7121 15.7815C20.1278 16.2471 21 17.5132 21 18.8541C21 20.5609 19.5751 22.1027 17.611 22.1027H17.1543V22.9565C17.1543 23.5328 16.6377 24 16.0004 24C15.3632 24 14.8466 23.5328 14.8466 22.9565V22.1027H14.7179C12.5721 22.1027 11 20.4156 11 18.5296C11 17.9533 11.5166 17.4861 12.1538 17.4861C12.7911 17.4861 13.3077 17.9533 13.3077 18.5296C13.3077 19.4377 14.0315 20.0158 14.7179 20.0158H14.8466V16.731L13.2879 16.2184C11.8722 15.7528 11 14.4867 11 13.1458C11 11.4389 12.4249 9.89717 14.389 9.89717H14.8466V9.04348C14.8466 8.46718 15.3632 8 16.0004 8ZM14.8466 11.9841H14.389C13.8843 11.9841 13.3077 12.4169 13.3077 13.1458C13.3077 13.7031 13.6668 14.1223 14.0765 14.2571L14.8466 14.5103V11.9841ZM17.1543 17.4898V20.0158H17.611C18.1157 20.0158 18.6923 19.583 18.6923 18.8541C18.6923 18.2967 18.3332 17.8776 17.9235 17.7428L17.1543 17.4898Z" fill="#F0B213"/>
</svg>
