<svg width="42" height="42" viewBox="0 0 42 42" fill="none" xmlns="http://www.w3.org/2000/svg">
<path fill-rule="evenodd" clip-rule="evenodd" d="M15.8021 5.85147C19.221 5.04951 22.7791 5.04951 26.1979 5.85147C31.1353 7.00961 34.9904 10.8647 36.1485 15.8021C36.9505 19.221 36.9505 22.779 36.1485 26.1979C34.9904 31.1353 31.1353 34.9904 26.1979 36.1485C22.779 36.9505 19.221 36.9505 15.8021 36.1485C10.8647 34.9904 7.00962 31.1353 5.85147 26.1979C5.04951 22.779 5.04951 19.221 5.85147 15.8021C7.00962 10.8647 10.8647 7.00961 15.8021 5.85147ZM26.3417 18.3353C26.7205 17.9295 26.6986 17.2934 26.2927 16.9146C25.8869 16.5359 25.2509 16.5578 24.8721 16.9636L19.7186 22.4852L17.1038 19.8704C16.7112 19.4779 16.0748 19.4779 15.6823 19.8704C15.2897 20.2629 15.2897 20.8994 15.6823 21.2919L19.0328 24.6424C19.2255 24.8351 19.4883 24.9413 19.7608 24.9366C20.0334 24.9319 20.2923 24.8168 20.4783 24.6175L26.3417 18.3353Z" fill="#EFEFFB"/>
</svg>
