<svg width="32" height="32" viewBox="0 0 32 32" fill="none" xmlns="http://www.w3.org/2000/svg">
<g clip-path="url(#clip0_520_112)">
<path d="M2.54892 20.7438L1.08856 21.0863L2.54892 20.7438ZM2.54892 11.2562L1.08856 10.9137L2.54892 11.2562ZM29.4511 11.2562L27.9907 11.5988L29.4511 11.2562ZM29.4511 20.7438L27.9907 20.4012L29.4511 20.7438ZM20.7438 29.4511L20.4012 27.9907L20.7438 29.4511ZM11.2562 29.4511L11.5988 27.9907L11.2562 29.4511ZM11.2562 2.54892L11.5988 4.00928L11.2562 2.54892ZM20.7438 2.54892L20.4012 4.00928L20.7438 2.54892ZM4.00928 20.4012C3.33024 17.5064 3.33024 14.4936 4.00928 11.5988L1.08856 10.9137C0.303814 14.2592 0.303814 17.7409 1.08856 21.0863L4.00928 20.4012ZM27.9907 11.5988C28.6698 14.4936 28.6698 17.5064 27.9907 20.4012L30.9114 21.0863C31.6962 17.7408 31.6962 14.2592 30.9114 10.9137L27.9907 11.5988ZM20.4012 27.9907C17.5064 28.6698 14.4936 28.6698 11.5988 27.9907L10.9137 30.9114C14.2592 31.6962 17.7408 31.6962 21.0863 30.9114L20.4012 27.9907ZM11.5988 4.00928C14.4936 3.33024 17.5064 3.33024 20.4012 4.00928L21.0863 1.08856C17.7408 0.303814 14.2592 0.303815 10.9137 1.08856L11.5988 4.00928ZM11.5988 27.9907C7.83299 27.1074 4.89262 24.167 4.00928 20.4012L1.08856 21.0863C2.2321 25.9614 6.0386 29.7679 10.9137 30.9114L11.5988 27.9907ZM21.0863 30.9114C25.9614 29.7679 29.7679 25.9614 30.9114 21.0863L27.9907 20.4012C27.1074 24.167 24.167 27.1074 20.4012 27.9907L21.0863 30.9114ZM20.4012 4.00928C24.167 4.89262 27.1074 7.83299 27.9907 11.5988L30.9114 10.9137C29.7679 6.0386 25.9614 2.2321 21.0863 1.08856L20.4012 4.00928ZM10.9137 1.08856C6.0386 2.2321 2.2321 6.03859 1.08856 10.9137L4.00928 11.5988C4.89262 7.83298 7.83299 4.89262 11.5988 4.00928L10.9137 1.08856Z" fill="#00A79E"/>
<path d="M13.6075 8.5L10.8925 11.2225" stroke="#00A79E" stroke-width="1.5" stroke-miterlimit="10" stroke-linecap="round" stroke-linejoin="round"/>
<path d="M18.3925 8.5L21.1075 11.2225" stroke="#00A79E" stroke-width="1.5" stroke-miterlimit="10" stroke-linecap="round" stroke-linejoin="round"/>
<path d="M8.5 12.8875C8.5 11.5 9.2425 11.3875 10.165 11.3875H21.835C22.7575 11.3875 23.5 11.5 23.5 12.8875C23.5 14.5 22.7575 14.3875 21.835 14.3875H10.165C9.2425 14.3875 8.5 14.5 8.5 12.8875Z" stroke="#00A79E" stroke-width="1.5"/>
<path d="M14.3199 17.5V20.1625" stroke="#00A79E" stroke-width="1.5" stroke-linecap="round"/>
<path d="M17.77 17.5V20.1625" stroke="#00A79E" stroke-width="1.5" stroke-linecap="round"/>
<path d="M9.625 14.5L10.6825 20.98C10.9225 22.435 11.5 23.5 13.645 23.5H18.1675C20.5 23.5 20.845 22.48 21.115 21.07L22.375 14.5" stroke="#00A79E" stroke-width="1.5" stroke-linecap="round"/>
</g>
<defs>
<clipPath id="clip0_520_112">
<rect width="32" height="32" fill="white"/>
</clipPath>
</defs>
</svg>
