<svg width="24" height="24" viewBox="0 0 24 24" fill="none" xmlns="http://www.w3.org/2000/svg">
<path d="M19.3562 15.6731H8.5237C8.11827 15.6731 7.76052 15.4084 7.64197 15.0206L4.13588 3.55817H1.05393C0.544704 3.55817 0.131897 3.14537 0.131897 2.63614C0.131897 2.12692 0.544704 1.71411 1.05393 1.71411H4.81819C5.22362 1.71411 5.58136 1.97887 5.69991 2.36638L9.206 13.8291H18.7435L21.532 7.19282H19.9458C19.4366 7.19282 19.0238 6.78001 19.0238 6.27079C19.0238 5.76156 19.4366 5.34876 19.9458 5.34876H22.9192C23.228 5.34876 23.5165 5.5034 23.6872 5.76051C23.8579 6.01763 23.889 6.34323 23.7694 6.62801L20.2061 15.1083C20.0623 15.4505 19.7274 15.6731 19.3562 15.6731Z" fill="#91268F"/>
<path d="M7.73996 21.3359C8.6362 21.3359 9.36274 20.6093 9.36274 19.7131C9.36274 18.8169 8.6362 18.0903 7.73996 18.0903C6.84373 18.0903 6.11719 18.8169 6.11719 19.7131C6.11719 20.6093 6.84373 21.3359 7.73996 21.3359Z" fill="#91268F"/>
<path d="M19.7817 21.3359C20.6779 21.3359 21.4045 20.6093 21.4045 19.7131C21.4045 18.8169 20.6779 18.0903 19.7817 18.0903C18.8855 18.0903 18.1589 18.8169 18.1589 19.7131C18.1589 20.6093 18.8855 21.3359 19.7817 21.3359Z" fill="#91268F"/>
<path d="M16.5382 5.28105H13.8931V2.63614C13.8931 2.12692 13.4803 1.71411 12.971 1.71411C12.4618 1.71411 12.049 2.12692 12.049 2.63614V5.28105H9.40409C8.89486 5.28105 8.48206 5.69386 8.48206 6.20309C8.48206 6.71231 8.89486 7.12512 9.40409 7.12512H12.049V9.77003C12.049 10.2793 12.4618 10.6921 12.971 10.6921C13.4803 10.6921 13.8931 10.2793 13.8931 9.77003V7.12512H16.5382C17.0475 7.12512 17.4603 6.71231 17.4603 6.20309C17.4603 5.69386 17.0475 5.28105 16.5382 5.28105Z" fill="#91268F"/>
</svg>
