<svg width="605" height="721" viewBox="0 0 605 721" fill="none" xmlns="http://www.w3.org/2000/svg">
<rect x="0.164551" width="604.835" height="721" fill="#91268F"/>
<path d="M175.572 545.911C124.092 523.733 195.975 324.38 124.837 244.84C24.1151 149.021 3.54333 141.028 0.164398 145.481C0.164886 150.709 -0.205872 149.728 0.164398 151.21C1.66599 157.218 0.164398 721 0.164398 721H410.731C410.731 682.313 407.122 629.728 361.571 593.936C333.558 571.925 207.148 573.592 175.572 545.911Z" fill="#861D84"/>
<path d="M433.158 402.031C530.42 453.106 482.788 426.567 604.659 472.134V6.10352e-05H80.7593C89.2941 10.3707 100.33 20.1826 114.589 28.9807C150.299 51.0132 311.443 49.3441 351.695 77.0516C417.32 99.251 342.474 322.413 433.158 402.031Z" fill="#861D84"/>
</svg>
