<svg width="293" height="349" viewBox="0 0 293 349" fill="none" xmlns="http://www.w3.org/2000/svg">
<rect x="0.0795898" width="292.085" height="348.181" rx="42" fill="#91268F"/>
<path d="M84.7867 263.628C59.9263 252.918 94.6395 156.648 60.286 118.236C11.6457 71.9644 1.71123 68.1041 0.079483 70.2546C0.0797119 72.7795 -0.0993195 72.3059 0.079483 73.0213C0.804626 75.9228 0.079483 348.181 0.079483 348.181H198.349C198.349 329.498 196.606 304.104 174.609 286.82C161.081 276.19 100.035 276.995 84.7867 263.628Z" fill="#861D84"/>
<path d="M203.911 194.159C253.962 218.822 229.45 206.007 292.165 228.01V0.0300598H22.5664C26.9584 5.03775 32.6372 9.77562 39.9754 14.024C58.3516 24.6629 141.276 23.8569 161.99 37.2361C195.76 47.9555 157.245 155.714 203.911 194.159Z" fill="#861D84"/>
</svg>
