<svg width="16" height="16" viewBox="0 0 16 16" fill="none" xmlns="http://www.w3.org/2000/svg">
<path fill-rule="evenodd" clip-rule="evenodd" d="M5.87326 2.2202C7.27421 1.9266 8.72612 1.9266 10.1271 2.2202L10.4201 2.28162C11.6291 2.53499 12.68 3.17495 13.4205 4.06108C13.5414 4.20572 13.5008 4.41427 13.3411 4.52001L8.91634 7.45007C8.36624 7.81434 7.63407 7.81434 7.08397 7.45007L2.65922 4.52002C2.49955 4.41428 2.45891 4.20572 2.57979 4.06108C3.32032 3.17495 4.37122 2.53499 5.5802 2.28162L5.87326 2.2202ZM2.21674 5.4569C2.03145 5.3342 1.77317 5.40454 1.70302 5.60794C1.66385 5.72154 1.6288 5.83699 1.59805 5.95413C1.24531 7.29763 1.24531 8.70237 1.59805 10.0459C2.0811 11.8858 3.62362 13.3083 5.5802 13.7184L5.87326 13.7798C7.27421 14.0734 8.72611 14.0734 10.1271 13.7798L10.4201 13.7184C12.3767 13.3083 13.9192 11.8858 14.4023 10.0459C14.755 8.70237 14.755 7.29764 14.4023 5.95413C14.3715 5.83699 14.3365 5.72154 14.2973 5.60794C14.2272 5.40453 13.9689 5.33419 13.7836 5.45689L9.52713 8.2755C8.6103 8.88262 7.39001 8.88261 6.47319 8.2755L2.21674 5.4569Z" fill="#91268F"/>
</svg>
