<svg width="16" height="16" viewBox="0 0 16 16" fill="none" xmlns="http://www.w3.org/2000/svg">
<path d="M4.73637 2C4.51182 2 4.28878 2.03424 4.07379 2.10137L3.90946 2.15268C2.95218 2.45159 2.25892 3.30659 2.0787 4.32933C1.97377 4.9248 1.97377 5.53673 2.0787 6.13221C2.08282 6.15563 2.08722 6.17896 2.09188 6.20219C2.8427 10.1047 5.89523 13.1573 9.79776 13.9081C9.82101 13.9128 9.84436 13.9172 9.86779 13.9213C10.4633 14.0262 11.0752 14.0262 11.6707 13.9213C12.6934 13.7411 13.5484 13.0478 13.8473 12.0905L13.8986 11.9262C13.9658 11.7112 14 11.4882 14 11.2636C14 10.1843 13.0496 9.38461 11.9747 9.38462H9.56373C8.4889 9.38461 7.53846 10.1843 7.53846 11.2636C7.53846 11.4882 7.5727 11.7112 7.63983 11.9262L7.69114 12.0905C7.70866 12.1467 7.7281 12.2019 7.74936 12.2561C6.0106 11.3999 4.60007 9.9894 3.74389 8.25064C3.79814 8.27191 3.85334 8.29134 3.90946 8.30886L4.07379 8.36017C4.28877 8.4273 4.51182 8.46154 4.73637 8.46154C5.81572 8.46154 6.61539 7.5111 6.61538 6.43627L6.61539 4.02527C6.61539 2.95044 5.81572 2 4.73637 2Z" fill="#91268F"/>
</svg>
