<svg width="16" height="16" viewBox="0 0 16 16" fill="none" xmlns="http://www.w3.org/2000/svg">
<path d="M9.33333 6.66663C9.33333 7.39996 8.73333 7.99996 8 7.99996C7.26667 7.99996 6.66667 7.39996 6.66667 6.66663C6.66667 5.93329 7.26667 5.33329 8 5.33329C8.73333 5.33329 9.33333 5.93329 9.33333 6.66663ZM13 6.66663C13 10.72 9.88667 13.26 8.55333 14.16C8.38667 14.28 8.19333 14.3333 8 14.3333C7.80667 14.3333 7.61334 14.28 7.44 14.16C6.10667 13.26 3 10.7266 3 6.66663C3 3.81329 5.14667 1.66663 8 1.66663C10.8467 1.66663 13 3.81329 13 6.66663ZM10.6667 6.66663C10.6667 5.19329 9.47333 3.99996 8 3.99996C6.52667 3.99996 5.33333 5.19329 5.33333 6.66663C5.33333 8.13996 6.52667 9.33329 8 9.33329C9.47333 9.33329 10.6667 8.13996 10.6667 6.66663Z" fill="#91268F"/>
</svg>
