<svg width="91" height="63" viewBox="0 0 91 63" fill="none" xmlns="http://www.w3.org/2000/svg">
<path d="M58.9237 10.0266C58.9237 11.0288 58.8414 11.8832 58.6755 12.5897C58.4225 13.6876 57.8141 14.6872 56.8535 15.5902C55.4888 16.8678 53.6636 17.5059 51.3795 17.5059C49.0536 17.5059 47.2374 16.8548 45.9302 15.5526C45.2394 14.8712 44.7673 14.0131 44.5138 12.9785C44.3321 12.2485 44.2402 11.2645 44.2402 10.0266V0.000421524H48.6168V9.43507C48.6168 10.1583 48.63 10.6976 48.6538 11.0539C48.7372 12.1837 49.258 12.9733 50.2207 13.419C50.6153 13.6066 51.0504 13.6996 51.5279 13.6996C52.5952 13.6996 53.4022 13.3291 53.9424 12.5918C54.3465 12.0447 54.5472 10.9928 54.5472 9.43507V0.000421524H58.9237V10.0266Z" fill="#91268F"/>
<path d="M73.1974 11.5448C73.1974 14.3619 71.9463 16.2003 69.4483 17.0531C68.5768 17.353 67.641 17.5061 66.6381 17.5061C64.534 17.5061 62.5821 16.8749 60.7822 15.6139L62.6565 12.1259C63.9737 13.3043 65.2618 13.8942 66.5235 13.8942C67.0907 13.8942 67.5734 13.7631 67.9669 13.5002C68.4306 13.2055 68.6592 12.7864 68.6592 12.243C68.6592 11.7502 68.4052 11.34 67.894 11.0108C67.5158 10.7647 66.8779 10.5144 65.9816 10.2589C64.8937 9.94271 64.2092 9.72324 63.9299 9.60044C63.4857 9.41546 63.1076 9.19598 62.7949 8.94359C61.8971 8.21359 61.4477 7.10787 61.4477 5.62906C61.4477 4.08753 61.9124 2.80676 62.8424 1.79249C63.9256 0.59794 65.3727 0.000143051 67.1794 0.000143051C68.9967 0.000143051 70.7754 0.451626 72.5183 1.35512L70.768 4.72243C69.8121 3.98093 68.8488 3.61253 67.8771 3.61253C67.406 3.61253 66.9861 3.72958 66.6154 3.96682C66.1945 4.23698 65.9848 4.5965 65.9848 5.04432C65.9848 5.48483 66.2605 5.86473 66.8108 6.18296C67.059 6.33032 67.8005 6.58219 69.0347 6.9417C70.5821 7.39005 71.6865 8.02495 72.3445 8.84692C72.9128 9.54662 73.1974 10.4459 73.1974 11.5448Z" fill="#91268F"/>
<path d="M90.9993 17.2881H85.3409L79.6562 9.79106V17.2881H75.2822V3.05176e-05H79.6562V7.13232L84.995 3.05176e-05H90.3824L83.7122 8.18265L90.9993 17.2881Z" fill="#91268F"/>
<path d="M34.1794 12.7285C34.4503 12.6742 34.7302 12.6203 35.0028 12.5681C36.2618 12.3204 37.5562 12.0664 38.556 11.9834V3.61262H42.1789V0.000232697H30.6172V3.61262H34.1794V12.7285Z" fill="#91268F"/>
<path d="M86.463 26.4925C86.463 25.8723 86.2782 25.3753 85.9122 25.0048C85.5451 24.6344 84.9214 24.4494 84.0389 24.4494H82.567V28.5953H84.0262C84.9732 28.5953 85.6259 28.392 85.9792 27.9839C86.3019 27.6165 86.463 27.1201 86.463 26.4925ZM90.9996 26.4419C90.9996 27.9442 90.6426 29.1889 89.9286 30.1692C88.9975 31.4463 87.4564 32.0849 85.3022 32.0849H82.567V38.0352H78.1904V20.9598H85.1559C87.1374 20.9598 88.641 21.532 89.6672 22.6774C90.5555 23.6614 90.9996 24.915 90.9996 26.4419Z" fill="#00A79E"/>
<path d="M71.703 20.9598V29.9659C71.703 31.5257 71.5017 32.5756 71.0983 33.1206C70.5564 33.8621 69.7505 34.2305 68.6831 34.2305C68.2068 34.2305 67.7705 34.1375 67.376 33.9499C66.4132 33.5041 65.8915 32.7161 65.8106 31.5869C65.7864 31.2284 65.7726 30.6891 65.7726 29.9659V20.9598H61.3955V26.34C61.4029 26.3488 61.4103 26.3593 61.4177 26.3666C63.4256 28.9156 64.1698 31.9657 63.6374 35.4376C63.6374 35.4376 63.6321 35.4705 63.6237 35.5222C63.6147 35.5813 63.6057 35.6393 63.5946 35.6983C63.5893 35.7312 63.582 35.7631 63.5746 35.7939C63.5376 35.9899 63.4853 36.2277 63.4235 36.3964C64.6989 37.4901 66.4027 38.0352 68.5342 38.0352C70.8194 38.0352 72.6441 37.3982 74.0061 36.1216C74.9699 35.2181 75.5768 34.2179 75.834 33.1206C75.9966 32.4125 76.0795 31.5597 76.0795 30.5596V20.9598H71.703Z" fill="#00A79E"/>
<path d="M22.1693 30.2918C22.9081 29.9804 23.3602 29.6783 23.7272 29.3617C23.7293 29.3617 23.7315 29.3601 23.7315 29.3601V29.358C24.0336 29.0972 24.3061 28.7989 24.2754 28.4519C24.0589 26.0105 22.0483 25.1635 21.6918 25.0804C21.6174 25.0626 21.461 25.0355 21.3892 25.0355C21.2994 25.0355 21.2097 25.0642 21.1341 25.1217C18.8495 26.8832 16.1064 27.8128 13.2038 27.8128C7.5185 27.8128 2.41996 24.0499 0.806534 18.6609C0.752665 18.4843 0.589473 18.3677 0.410967 18.3677C0.378223 18.3677 0.343895 18.3729 0.311151 18.3818C0.0956753 18.4346 -0.0379403 18.6468 0.00959112 18.8605C0.742103 22.3485 2.68508 25.523 5.4831 27.7987C7.86125 29.7342 10.767 30.9356 13.8101 31.2758C13.8465 31.281 13.8814 31.2841 13.9205 31.2899C17.2809 31.7288 20.3942 31.004 22.1693 30.2918Z" fill="#A7A9AC"/>
<path d="M27.7672 45.9299C27.7635 45.9263 27.7625 45.9263 27.7625 45.9263L27.7609 45.9226C27.6209 45.7732 27.5053 45.5971 27.397 45.3776C27.3326 45.2428 27.2708 45.1101 27.2011 44.9836C27.2 44.982 27.2 44.9784 27.1979 44.9768C27.1773 44.9423 27.1551 44.9063 27.1324 44.8723C26.9772 44.6748 26.6798 44.7824 26.5789 44.8274C26.5679 44.8305 26.5583 44.8362 26.5473 44.8415H26.5446C24.4384 45.7753 22.5736 45.9122 21.1963 45.0719C20.0809 44.3942 19.4017 43.1453 19.1239 41.4867C18.6808 37.0889 20.1865 33.5925 21.6859 31.2875C20.6016 31.6476 18.8144 32.1085 16.6195 32.1853C15.2258 39.5804 16.3486 45.527 20.29 47.1637C22.2932 47.9987 25.265 47.7751 27.7672 46.3746C27.978 46.2247 27.8855 46.0595 27.8142 45.9785C27.7979 45.9623 27.7825 45.9461 27.7672 45.9299Z" fill="#58595B"/>
<path d="M25.8309 21.1646C25.232 21.1646 24.7477 20.6865 24.7477 20.0944C24.7477 19.5024 25.232 19.0222 25.8309 19.0222C26.4272 19.0222 26.9115 19.5024 26.9115 20.0944C26.9115 20.6865 26.4272 21.1646 25.8309 21.1646ZM45.511 20.8354C35.4698 40.1959 27.1454 26.7789 27.1454 26.7789C35.8305 34.3878 42.6618 24.6741 43.7952 19.3409C44.5451 15.81 42.9935 14.3349 41.4392 13.7104C39.9081 13.1194 37.9847 13.3546 37.4793 13.4319C35.728 13.7162 33.5099 14.245 32.6047 14.279C31.4766 14.3239 28.6585 13.6456 25.9418 14.3495C25.9307 14.3511 25.9228 14.3532 25.9138 14.3547C25.9138 14.3547 25.8911 14.3605 25.8552 14.3688C25.8394 14.3746 25.8219 14.3803 25.8056 14.385C25.7575 14.3981 25.6947 14.4159 25.6191 14.4373C25.579 14.4498 25.5399 14.4608 25.5008 14.4749C25.1739 14.5763 24.6865 14.7414 24.152 14.9703C23.9365 15.0617 23.7131 15.1642 23.4892 15.2776C22.6431 15.7489 21.167 16.8426 20.1588 19.0906V19.0927C18.8966 21.9202 18.4292 25.2389 18.293 25.9407C19.1227 25.5593 19.9154 25.0843 20.6563 24.5142C20.8644 24.3543 21.1243 24.266 21.3899 24.266C21.5916 24.266 21.8679 24.3292 21.8705 24.3307C22.6178 24.5037 24.8069 25.6241 25.0498 28.3831C25.1121 29.0525 24.6738 29.5468 24.3886 29.8118L24.2904 29.8996L24.1784 29.9947C23.983 30.1603 23.7797 30.3077 23.5594 30.4467C26.0464 31.2577 27.841 33.5726 27.841 36.3071C27.841 38.8644 26.2682 41.0592 24.0284 41.9945C24.0247 41.9945 24.021 41.9961 24.021 41.9961C24.021 41.9982 24.0231 41.9982 24.0231 41.9982C31.1793 44.8487 35.1951 41.7933 46.9201 36.9002C58.016 32.2725 62.0588 35.4412 62.0588 35.4412C64.3071 22.3121 45.511 20.8354 45.511 20.8354Z" fill="#58595B"/>
<path d="M35.7774 50.9995C35.0334 50.9995 34.3414 50.8555 33.7014 50.5675C33.0694 50.2795 32.5614 49.8675 32.1774 49.3315C31.8014 48.7955 31.6134 48.1715 31.6134 47.4595C31.6134 46.9635 31.7214 46.4235 31.9374 45.8395H33.6294C33.4774 46.3435 33.4014 46.7795 33.4014 47.1475C33.4014 47.8035 33.6014 48.3155 34.0014 48.6835C34.4094 49.0435 35.0014 49.2235 35.7774 49.2235H40.4694V45.2395H42.2814V50.9995H35.7774ZM36.9294 54.1075C36.6494 54.1075 36.4094 54.0075 36.2094 53.8075C36.0094 53.6075 35.9094 53.3675 35.9094 53.0875C35.9094 52.8075 36.0094 52.5675 36.2094 52.3675C36.4094 52.1675 36.6494 52.0675 36.9294 52.0675C37.2094 52.0675 37.4494 52.1675 37.6494 52.3675C37.8494 52.5675 37.9494 52.8075 37.9494 53.0875C37.9494 53.3675 37.8494 53.6075 37.6494 53.8075C37.4494 54.0075 37.2094 54.1075 36.9294 54.1075ZM43.554 42.1915H45.366V50.9995H43.554V42.1915Z" fill="#00A79E"/>
<path d="M59.2829 48.7795C59.5789 49.0755 60.0669 49.2235 60.7469 49.2235V50.9995C59.4749 50.9995 58.6149 50.6475 58.1669 49.9435C57.8789 50.2795 57.5149 50.5395 57.0749 50.7235C56.6429 50.9075 56.1469 50.9995 55.5869 50.9995H52.3709C51.6269 50.9995 50.9349 50.8715 50.2949 50.6155C49.6629 50.3595 49.1509 49.9795 48.7589 49.4755C48.3749 48.9635 48.1829 48.3435 48.1829 47.6155C48.1829 47.0875 48.3029 46.4955 48.5429 45.8395H50.2349C50.0829 46.3435 50.0069 46.7795 50.0069 47.1475C50.0069 47.8035 50.2069 48.3155 50.6069 48.6835C51.0149 49.0435 51.6029 49.2235 52.3709 49.2235H55.5869C56.1149 49.2235 56.4949 49.1035 56.7269 48.8635C56.9669 48.6235 57.0869 48.2315 57.0869 47.6875V42.1915H58.8989V47.6875C58.8989 48.1435 59.0269 48.5075 59.2829 48.7795ZM55.2029 46.1635H51.8789V45.1555H52.2509C52.0029 44.9315 51.8789 44.6195 51.8789 44.2195C51.8789 43.7315 52.0589 43.3395 52.4189 43.0435C52.7789 42.7395 53.2229 42.5875 53.7509 42.5875C54.1589 42.5875 54.5589 42.6835 54.9509 42.8755L54.4589 43.8355C54.2349 43.7475 54.0309 43.7035 53.8469 43.7035C53.6149 43.7035 53.4229 43.7595 53.2709 43.8715C53.1269 43.9835 53.0549 44.1515 53.0549 44.3755C53.0549 44.6155 53.1349 44.8075 53.2949 44.9515C53.4629 45.0875 53.6749 45.1555 53.9309 45.1555H55.2029V46.1635ZM59.7822 50.1115C59.7822 49.8555 59.8742 49.6435 60.0582 49.4755C60.2342 49.3075 60.4622 49.2235 60.7422 49.2235H63.1422V50.9995H60.7422C60.4622 50.9995 60.2342 50.9155 60.0582 50.7475C59.8742 50.5795 59.7822 50.3675 59.7822 50.1115ZM62.1845 50.1115C62.1845 49.8555 62.2765 49.6435 62.4605 49.4755C62.6365 49.3075 62.8645 49.2235 63.1445 49.2235H65.5445V50.9995H63.1445C62.8645 50.9995 62.6365 50.9155 62.4605 50.7475C62.2765 50.5795 62.1845 50.3675 62.1845 50.1115ZM76.7789 44.4115V50.9995H74.3069C73.7709 50.9995 73.3269 50.9195 72.9749 50.7595C72.6229 50.5915 72.3469 50.3435 72.1469 50.0155C71.9069 50.3275 71.6229 50.5715 71.2949 50.7475C70.9669 50.9155 70.6109 50.9995 70.2269 50.9995H65.5469C65.2669 50.9995 65.0389 50.9155 64.8629 50.7475C64.6789 50.5795 64.5869 50.3675 64.5869 50.1115C64.5869 49.8555 64.6789 49.6435 64.8629 49.4755C65.0389 49.3075 65.2669 49.2235 65.5469 49.2235H67.0469V44.8075H68.8589V49.2235H69.9869C70.6669 49.2235 71.0069 48.7115 71.0069 47.6875V44.8075H72.8189V47.6875C72.8189 48.2155 72.9189 48.6035 73.1189 48.8515C73.3269 49.0995 73.6429 49.2235 74.0669 49.2235H74.9669V44.4115H76.7789ZM81.354 49.2235V50.9995H78.054V42.1915H79.866V49.2235H81.354ZM80.3955 50.1115C80.3955 49.8555 80.4875 49.6435 80.6715 49.4755C80.8475 49.3075 81.0755 49.2235 81.3555 49.2235H83.7555V50.9995H81.3555C81.0755 50.9995 80.8475 50.9155 80.6715 50.7475C80.4875 50.5795 80.3955 50.3675 80.3955 50.1115ZM82.7978 50.1115C82.7978 49.8555 82.8898 49.6435 83.0738 49.4755C83.2498 49.3075 83.4778 49.2235 83.7578 49.2235H86.1578V50.9995H83.7578C83.4778 50.9995 83.2498 50.9155 83.0738 50.7475C82.8898 50.5795 82.7978 50.3675 82.7978 50.1115ZM87.6602 45.2395H89.4722V50.9995H86.1602C85.8882 50.9995 85.6602 50.9115 85.4762 50.7355C85.2922 50.5595 85.2002 50.3435 85.2002 50.0875C85.2002 49.8315 85.2882 49.6235 85.4642 49.4635C85.6402 49.3035 85.8722 49.2235 86.1602 49.2235H87.6602V45.2395ZM87.3482 44.1595C87.0682 44.1595 86.8282 44.0595 86.6282 43.8595C86.4282 43.6595 86.3282 43.4195 86.3282 43.1395C86.3282 42.8595 86.4282 42.6195 86.6282 42.4195C86.8282 42.2195 87.0682 42.1195 87.3482 42.1195C87.6282 42.1195 87.8682 42.2195 88.0682 42.4195C88.2682 42.6195 88.3682 42.8595 88.3682 43.1395C88.3682 43.4195 88.2682 43.6595 88.0682 43.8595C87.8682 44.0595 87.6282 44.1595 87.3482 44.1595ZM89.7362 44.1595C89.4562 44.1595 89.2162 44.0595 89.0162 43.8595C88.8162 43.6595 88.7162 43.4195 88.7162 43.1395C88.7162 42.8595 88.8162 42.6195 89.0162 42.4195C89.2162 42.2195 89.4562 42.1195 89.7362 42.1195C90.0162 42.1195 90.2562 42.2195 90.4562 42.4195C90.6562 42.6195 90.7562 42.8595 90.7562 43.1395C90.7562 43.4195 90.6562 43.6595 90.4562 43.8595C90.2562 44.0595 90.0162 44.1595 89.7362 44.1595Z" fill="#91268F"/>
</svg>
