<svg width="500" height="500" viewBox="0 0 500 500" fill="none" xmlns="http://www.w3.org/2000/svg">
<path d="M141.5 158.12C64.5996 203 59.9996 354.53 169.38 351.63C218.29 350.33 232.58 299.04 276.72 281.04C318.16 264.13 353.89 298.04 395.72 259.64C445.01 214.44 452.09 103.89 378.83 96.5C346.93 93.28 334.63 125.13 306.76 132.18C250.26 146.48 198.64 124.79 141.5 158.12Z" fill="#DBB8DB"/>
<path opacity="0.9" d="M142.255 159.416C170.5 142.941 197.387 140.043 224.399 139.513C230.011 139.403 235.638 139.397 241.289 139.39C262.771 139.365 284.587 139.339 307.127 133.634C319.287 130.558 328.592 122.874 337.474 115.54C339.065 114.226 340.643 112.923 342.221 111.66C352.699 103.273 363.344 96.4445 378.679 97.9924L378.83 96.5L378.679 97.9924C396.577 99.7979 409.483 107.877 418.096 119.638C426.739 131.44 431.126 147.046 431.732 163.945C432.945 197.787 418.979 236.275 394.706 258.534L394.705 258.535C384.419 267.978 374.563 272.931 364.94 275.351C355.296 277.777 345.804 277.681 336.194 276.904C332.914 276.638 329.613 276.291 326.287 275.94C310.258 274.252 293.666 272.505 276.153 279.651C256.957 287.479 243.297 301.525 230.303 314.884C228.116 317.133 225.949 319.361 223.777 321.538C208.619 336.726 193.18 349.497 169.34 350.131C142.369 350.846 122.576 342.052 109.153 327.897C95.7009 313.71 88.5188 294 87.0812 272.692C84.201 230.004 104.398 181.51 142.255 159.416ZM142.255 159.416L141.5 158.12M142.255 159.416L141.5 158.12M141.5 158.12C64.5996 203 59.9996 354.53 169.38 351.63C197.367 350.886 214.019 333.773 231.414 315.896C244.418 302.531 257.838 288.74 276.72 281.04L306.76 132.18C284.417 137.835 262.838 137.862 241.379 137.888C208.571 137.929 176.044 137.97 141.5 158.12Z" fill="white" stroke="#2E353A" stroke-width="3"/>
<path d="M250 427.56C357.083 427.56 443.89 422.492 443.89 416.24C443.89 409.988 357.083 404.92 250 404.92C142.918 404.92 56.1104 409.988 56.1104 416.24C56.1104 422.492 142.918 427.56 250 427.56Z" fill="#F5F5F5"/>
<path d="M48.8604 150.56L276.83 183.38L307.42 214.25L48.8604 150.56Z" fill="#DBB8DB"/>
<path opacity="0.6" d="M48.8604 150.56L276.83 183.38L307.42 214.25L48.8604 150.56Z" fill="white"/>
<path d="M48.8604 150.56L276.83 183.38L266.25 228.02L48.8604 150.56Z" fill="#DBB8DB"/>
<path opacity="0.2" d="M48.8604 150.56L276.83 183.38L266.25 228.02L48.8604 150.56Z" fill="black"/>
<path d="M261.57 98.88L274.8 160.88C275.144 162.499 274.832 164.188 273.932 165.578C273.032 166.967 271.618 167.942 270 168.29L151.92 193.49C150.301 193.831 148.613 193.518 147.225 192.619C145.836 191.719 144.86 190.307 144.51 188.69L131.27 126.69C130.929 125.07 131.244 123.381 132.145 121.992C133.046 120.603 134.461 119.628 136.08 119.28L254.16 94.08C255.78 93.7389 257.47 94.0534 258.858 94.9549C260.247 95.8564 261.222 97.2713 261.57 98.89V98.88Z" fill="#DBB8DB"/>
<path opacity="0.4" d="M260.106 99.205L260.104 99.2053C259.839 97.9744 259.098 96.8985 258.042 96.2131C256.986 95.5279 255.702 95.2886 254.471 95.5475C254.47 95.5476 254.47 95.5477 254.469 95.5478L136.395 120.746C136.395 120.747 136.395 120.747 136.395 120.747C135.164 121.011 134.089 121.753 133.403 122.808C132.718 123.864 132.479 125.148 132.737 126.379C132.738 126.38 132.738 126.38 132.738 126.381L145.976 188.372C145.976 188.373 145.976 188.374 145.977 188.374C146.243 189.603 146.985 190.676 148.04 191.36C149.096 192.044 150.379 192.282 151.609 192.023C151.61 192.022 151.61 192.022 151.611 192.022L269.685 166.823C270.915 166.559 271.989 165.818 272.673 164.762C273.357 163.707 273.594 162.423 273.333 161.193L260.106 99.205ZM260.106 99.205L273.333 161.192L260.106 99.205Z" fill="black" stroke="#606060" stroke-width="3"/>
<path d="M134.803 121.396L188.735 148.56C193.603 151.011 199.162 151.727 204.492 150.589C209.823 149.451 214.605 146.528 218.048 142.302L256.181 95.4891C255.618 95.4021 255.04 95.4165 254.474 95.537L134.803 121.396ZM134.803 121.396C135.284 121.084 135.822 120.859 136.393 120.737L136.394 120.737L254.473 95.5371L134.803 121.396Z" fill="#DBB8DB" stroke="#714870" stroke-width="3"/>
<path d="M48.8604 150.56L236.89 195.25L266.25 228.02L48.8604 150.56Z" fill="#DBB8DB"/>
<path opacity="0.6" d="M48.8604 150.56L236.89 195.25L266.25 228.02L48.8604 150.56Z" fill="white"/>
<path d="M117.45 193.635L116.944 194.498L137.869 206.755L138.374 205.892L117.45 193.635Z" fill="#DBB8DB"/>
<path d="M147.612 211.296L147.106 212.158L154.631 216.566L155.136 215.703L147.612 211.296Z" fill="#DBB8DB"/>
<path d="M48.8604 150.56L236.89 195.25L200.34 239.3L48.8604 150.56Z" fill="#DBB8DB"/>
<path d="M300.361 255.26C300.107 255.261 299.856 255.213 299.621 255.12L269.001 243C268.511 242.803 268.119 242.42 267.91 241.934C267.702 241.449 267.694 240.901 267.888 240.41C268.082 239.919 268.463 239.524 268.946 239.313C269.43 239.101 269.978 239.089 270.471 239.28L301.101 251.4C301.534 251.571 301.894 251.888 302.118 252.297C302.343 252.705 302.418 253.179 302.33 253.637C302.242 254.094 301.997 254.507 301.638 254.803C301.278 255.1 300.827 255.261 300.361 255.26Z" fill="#DBB8DB"/>
<path opacity="0.3" d="M300.361 255.26C300.107 255.261 299.856 255.213 299.621 255.12L269.001 243C268.511 242.803 268.119 242.42 267.91 241.934C267.702 241.449 267.694 240.901 267.888 240.41C268.082 239.919 268.463 239.524 268.946 239.313C269.43 239.101 269.978 239.089 270.471 239.28L301.101 251.4C301.534 251.571 301.894 251.888 302.118 252.297C302.343 252.705 302.418 253.179 302.33 253.637C302.242 254.094 301.997 254.507 301.638 254.803C301.278 255.1 300.827 255.261 300.361 255.26Z" fill="black"/>
<path d="M298.55 237.7C298.299 237.698 298.051 237.647 297.82 237.55L281.37 231C281.124 230.905 280.9 230.762 280.709 230.579C280.519 230.397 280.366 230.178 280.26 229.937C280.155 229.695 280.098 229.435 280.093 229.171C280.088 228.907 280.136 228.645 280.233 228.4C280.33 228.155 280.474 227.931 280.658 227.742C280.842 227.553 281.061 227.402 281.303 227.298C281.546 227.193 281.806 227.138 282.07 227.135C282.334 227.132 282.595 227.181 282.84 227.28L299.29 233.8C299.783 233.994 300.179 234.376 300.391 234.861C300.603 235.347 300.613 235.897 300.42 236.39C300.279 236.773 300.025 237.104 299.69 237.338C299.356 237.572 298.958 237.699 298.55 237.7Z" fill="#DBB8DB"/>
<path opacity="0.5" d="M298.55 237.7C298.299 237.698 298.051 237.647 297.82 237.55L281.37 231C281.124 230.905 280.9 230.762 280.709 230.579C280.519 230.397 280.366 230.178 280.26 229.937C280.155 229.695 280.098 229.435 280.093 229.171C280.088 228.907 280.136 228.645 280.233 228.4C280.33 228.155 280.474 227.931 280.658 227.742C280.842 227.553 281.061 227.402 281.303 227.298C281.546 227.193 281.806 227.138 282.07 227.135C282.334 227.132 282.595 227.181 282.84 227.28L299.29 233.8C299.783 233.994 300.179 234.376 300.391 234.861C300.603 235.347 300.613 235.897 300.42 236.39C300.279 236.773 300.025 237.104 299.69 237.338C299.356 237.572 298.958 237.699 298.55 237.7Z" fill="white"/>
<path d="M264.161 255C263.911 254.997 263.664 254.95 263.431 254.86L233.561 243C233.315 242.905 233.09 242.762 232.899 242.579C232.709 242.397 232.557 242.178 232.451 241.937C232.345 241.695 232.288 241.435 232.284 241.171C232.279 240.907 232.326 240.645 232.423 240.4C232.52 240.155 232.665 239.931 232.848 239.742C233.032 239.553 233.251 239.402 233.494 239.298C233.736 239.193 233.997 239.138 234.26 239.135C234.524 239.132 234.786 239.181 235.031 239.28L264.901 251.1C265.334 251.271 265.694 251.588 265.918 251.997C266.143 252.405 266.217 252.879 266.13 253.337C266.042 253.794 265.797 254.207 265.438 254.503C265.078 254.8 264.626 254.961 264.161 254.96V255Z" fill="#DBB8DB"/>
<path opacity="0.3" d="M264.161 255C263.911 254.997 263.664 254.95 263.431 254.86L233.561 243C233.315 242.905 233.09 242.762 232.899 242.579C232.709 242.397 232.557 242.178 232.451 241.937C232.345 241.695 232.288 241.435 232.284 241.171C232.279 240.907 232.326 240.645 232.423 240.4C232.52 240.155 232.665 239.931 232.848 239.742C233.032 239.553 233.251 239.402 233.494 239.298C233.736 239.193 233.997 239.138 234.26 239.135C234.524 239.132 234.786 239.181 235.031 239.28L264.901 251.1C265.334 251.271 265.694 251.588 265.918 251.997C266.143 252.405 266.217 252.879 266.13 253.337C266.042 253.794 265.797 254.207 265.438 254.503C265.078 254.8 264.626 254.961 264.161 254.96V255Z" fill="black"/>
</svg>
