<svg width="32" height="32" viewBox="0 0 32 32" fill="none" xmlns="http://www.w3.org/2000/svg">
<path d="M9.33394 9.99931C9.33394 6.32331 12.3246 3.33264 16.0006 3.33264C19.6766 3.33264 22.6673 6.32331 22.6673 9.99931C22.6673 13.6753 19.6766 16.666 16.0006 16.666C12.3246 16.666 9.33394 13.6753 9.33394 9.99931ZM21.49 18.094C20.7446 17.9047 19.934 18.0114 19.2633 18.3847C17.2393 19.5101 14.7619 19.5101 12.7379 18.3847C12.0686 18.0127 11.2566 17.9074 10.5113 18.094C7.85527 18.7647 6.00061 21.1754 6.00061 23.9554V25.3033C6.00061 26.154 6.22725 26.9859 6.65792 27.7112C7.00858 28.3006 7.66596 28.6673 8.3713 28.6673H23.6286C24.334 28.6673 24.9913 28.3019 25.3419 27.7099C25.7726 26.9859 25.9993 26.154 25.9993 25.3033V23.9554C26.0006 21.1754 24.146 18.7647 21.49 18.094Z" fill="#91268F"/>
</svg>
